<?xml version="1.0" encoding="UTF-8" standalone="no"?>
<!-- Created with Inkscape (http://www.inkscape.org/) -->

<svg
   width="448.28015"
   height="448.27557"
   viewBox="0 0 448.28015 448.27557"
   version="1.1"
   id="svg5"
   inkscape:version="1.1.1 (3bf5ae0, 2021-09-20)"
   sodipodi:docname="logo.svg"
   xmlns:inkscape="http://www.inkscape.org/namespaces/inkscape"
   xmlns:sodipodi="http://sodipodi.sourceforge.net/DTD/sodipodi-0.dtd"
   xmlns="http://www.w3.org/2000/svg"
   xmlns:svg="http://www.w3.org/2000/svg">
  <sodipodi:namedview
     id="namedview7"
     pagecolor="#ffffff"
     bordercolor="#666666"
     borderopacity="1.0"
     inkscape:pageshadow="2"
     inkscape:pageopacity="0.0"
     inkscape:pagecheckerboard="0"
     inkscape:document-units="px"
     showgrid="false"
     showguides="true"
     inkscape:guide-bbox="true"
     inkscape:lockguides="false"
     inkscape:zoom="0.69663112"
     inkscape:cx="315.08785"
     inkscape:cy="292.83791"
     inkscape:window-width="1366"
     inkscape:window-height="708"
     inkscape:window-x="0"
     inkscape:window-y="28"
     inkscape:window-maximized="1"
     inkscape:current-layer="layer1" />
  <defs
     id="defs2">
    <clipPath
       clipPathUnits="userSpaceOnUse"
       id="clipPath141592">
      <circle
         style="fill:#ffcca1;fill-opacity:1;stroke:none;stroke-width:0.694806"
         id="circle141594"
         cx="348.67047"
         cy="1175.8887"
         r="52.778942" />
    </clipPath>
    <clipPath
       clipPathUnits="userSpaceOnUse"
       id="clipPath142314">
      <rect
         style="fill:#ffcca1;fill-opacity:1;stroke:none"
         id="rect142316"
         width="448.28018"
         height="448.2756"
         x="1219.2294"
         y="1044.4805" />
    </clipPath>
  </defs>
  <g
     inkscape:label="Layer 1"
     inkscape:groupmode="layer"
     id="layer1"
     transform="translate(-707.21579,-312.93464)">
    <g
       id="g141908"
       transform="translate(-512.01358,-731.54583)"
       clip-path="url(#clipPath142314)">
      <g
         id="g141235"
         transform="translate(1193.3814,222.7474)">
        <circle
           style="display:inline;fill:#d0712b;fill-opacity:1"
           id="circle61669"
           cx="250.25839"
           cy="1046.4276"
           r="223.58104" />
        <path
           id="circle74467"
           style="display:inline;fill:#d7b498;fill-opacity:1"
           d="M 250.25866,821.73306 C 126.77826,821.73251 26.677179,921.8327 26.676627,1045.3131 c 0.211378,69.0953 30.019655,134.166 84.744133,176.3494 88.70708,17.7994 189.19538,22.1864 277.26172,0.3071 54.92857,-42.1683 84.94226,-107.4086 85.15626,-176.6565 C 473.83819,921.83347 373.73829,821.73359 250.25866,821.73306 Z M 132.63562,1235.1783 c -88.423747,-823.4522 -44.211873,-411.7261 0,0 z"
           sodipodi:nodetypes="sccccscc" />
        <path
           id="path97034"
           style="fill:#d59465;fill-opacity:1;stroke:none;stroke-width:1px;stroke-linecap:butt;stroke-linejoin:miter;stroke-opacity:1"
           d="m 69.332915,914.21237 c -61.29758,87.66233 -53.129341,184.17313 -1.100901,262.70953 69.561656,25.7344 117.502876,30.0755 182.026136,30.0755 30.56449,0 100.18575,-47.6884 126.57025,-40.4359 14.0093,3.8508 -0.4771,17.6388 5.0366,22.4206 5.0146,1.6688 34.9149,-6.3244 50.3662,-12.0406 52.0285,-78.5364 60.02232,-175.2458 -1.27528,-262.90813 -20.003,13.10419 -103.14772,31.10663 -180.69777,31.10663 -77.55,0 -160.922245,-17.82344 -180.925235,-30.92763 z"
           sodipodi:nodetypes="ccsscccsc" />
        <path
           id="path84361"
           style="fill:#d0712b;fill-opacity:1;stroke:none;stroke-width:1px;stroke-linecap:butt;stroke-linejoin:miter;stroke-opacity:1"
           d="m 36.124063,980.31389 c -9.41088,22.60411 -12.430932,56.46451 -8.758335,86.58621 22.44892,29.9843 122.761102,59.2897 223.250932,58.1366 100.48985,1.1531 199.90388,-27.9375 222.35278,-57.9218 2.55651,-25.7834 0.64398,-64.2945 -8.76682,-86.89865 -32.6642,25.16485 -104.12241,49.53145 -213.58596,49.53145 -109.46349,0 -181.828397,-24.269 -214.492597,-49.43381 z"
           sodipodi:nodetypes="cccccsc" />
        <path
           id="path119911"
           style="fill:#ffcca1;fill-opacity:1;stroke:none;stroke-width:1px;stroke-linecap:butt;stroke-linejoin:miter;stroke-opacity:1"
           d="m 54.266246,937.57004 c -5.835009,10.92394 -13.729603,27.13833 -18.142183,42.74385 59.85659,43.27361 175.637117,48.41441 175.637117,48.41441 0,0 -19.21944,20.7278 -2.43684,23.7921 14.72636,2.6888 35.19345,-14.7456 69.67439,-20.6073 34.48095,-5.8616 131.52799,-12.0347 185.20389,-51.69685 -4.4125,-15.60552 -11.08247,-31.56034 -17.98191,-42.5312 -26.3079,13.86953 -100.57589,37.29697 -195.96304,37.29697 -95.38713,0 -169.683494,-23.54245 -195.991424,-37.41198 z"
           sodipodi:nodetypes="cccszccsc" />
      </g>
      <g
         id="g141584"
         transform="matrix(1.4392511,0,0,1.4392511,1027.2872,-321.7502)"
         clip-path="url(#clipPath141592)">
        <circle
           style="display:inline;fill:#d0712b;fill-opacity:1"
           id="circle141574"
           cx="250.25839"
           cy="1046.4276"
           r="223.58104" />
        <path
           id="path141576"
           style="display:inline;fill:#d7b498;fill-opacity:1"
           d="M 250.25866,821.73306 C 126.77826,821.73251 26.677179,921.8327 26.676627,1045.3131 c 0.211378,69.0953 30.019655,134.166 84.744133,176.3494 88.70708,17.7994 189.19538,22.1864 277.26172,0.3071 54.92857,-42.1683 84.94226,-107.4086 85.15626,-176.6565 C 473.83819,921.83347 373.73829,821.73359 250.25866,821.73306 Z M 132.63562,1235.1783 c -88.423747,-823.4522 -44.211873,-411.7261 0,0 z"
           sodipodi:nodetypes="sccccscc" />
        <path
           id="path141578"
           style="fill:#d59465;fill-opacity:1;stroke:none;stroke-width:1px;stroke-linecap:butt;stroke-linejoin:miter;stroke-opacity:1"
           d="m 69.332915,914.21237 c -61.29758,87.66233 -53.129341,184.17313 -1.100901,262.70953 69.561656,25.7344 117.502876,30.0755 182.026136,30.0755 30.56449,0 100.18575,-47.6884 126.57025,-40.4359 14.0093,3.8508 -0.4771,17.6388 5.0366,22.4206 5.0146,1.6688 34.9149,-6.3244 50.3662,-12.0406 52.0285,-78.5364 60.02232,-175.2458 -1.27528,-262.90813 -20.003,13.10419 -103.14772,31.10663 -180.69777,31.10663 -77.55,0 -160.922245,-17.82344 -180.925235,-30.92763 z"
           sodipodi:nodetypes="ccsscccsc" />
        <path
           id="path141580"
           style="fill:#d0712b;fill-opacity:1;stroke:none;stroke-width:1px;stroke-linecap:butt;stroke-linejoin:miter;stroke-opacity:1"
           d="m 36.124063,980.31389 c -9.41088,22.60411 -12.430932,56.46451 -8.758335,86.58621 22.44892,29.9843 122.761102,59.2897 223.250932,58.1366 100.48985,1.1531 199.90388,-27.9375 222.35278,-57.9218 2.55651,-25.7834 0.64398,-64.2945 -8.76682,-86.89865 -32.6642,25.16485 -104.12241,49.53145 -213.58596,49.53145 -109.46349,0 -181.828397,-24.269 -214.492597,-49.43381 z"
           sodipodi:nodetypes="cccccsc" />
        <path
           id="path141582"
           style="fill:#ffcca1;fill-opacity:1;stroke:none;stroke-width:1px;stroke-linecap:butt;stroke-linejoin:miter;stroke-opacity:1"
           d="m 54.266246,937.57004 c -5.835009,10.92394 -13.729603,27.13833 -18.142183,42.74385 59.85659,43.27361 175.637117,48.41441 175.637117,48.41441 0,0 -19.21944,20.7278 -2.43684,23.7921 14.72636,2.6888 35.19345,-14.7456 69.67439,-20.6073 34.48095,-5.8616 131.52799,-12.0347 185.20389,-51.69685 -4.4125,-15.60552 -11.08247,-31.56034 -17.98191,-42.5312 -26.3079,13.86953 -100.57589,37.29697 -195.96304,37.29697 -95.38713,0 -169.683494,-23.54245 -195.991424,-37.41198 z"
           sodipodi:nodetypes="cccszccsc" />
      </g>
      <g
         id="g11235"
         transform="translate(502.9762,696.78144)">
        <path
           id="lupe_base"
           style="fill:#000000;fill-opacity:1"
           d="m 1025.5801,585.67578 a 88.210762,88.210762 0 0 0 -88.21096,88.21094 88.210762,88.210762 0 0 0 88.21096,88.21094 88.210762,88.210762 0 0 0 58.1426,-21.90821 l 63.2968,53.0586 0.049,-0.0586 a 10.40723,10.40723 0 0 0 7.0566,2.78516 10.40723,10.40723 0 0 0 10.4082,-10.4082 10.40723,10.40723 0 0 0 -5.7871,-9.32227 L 1097.504,724.9082 a 88.210762,88.210762 0 0 0 16.2852,-51.02148 88.210762,88.210762 0 0 0 -88.209,-88.21094 z m -0.4844,16.79492 a 71.578278,71.578278 0 0 1 71.5781,71.58008 71.578278,71.578278 0 0 1 -71.5781,71.57813 71.578278,71.578278 0 0 1 -71.57812,-71.57813 71.578278,71.578278 0 0 1 71.57812,-71.58008 z" />
        <path
           id="path9601"
           style="fill:#000000;fill-opacity:1"
           d="m 1027.2188,614.60547 0.025,0.20312 a 6.6773448,6.6773448 0 0 0 -5.1015,6.47461 6.6773448,6.6773448 0 0 0 6.6777,6.67578 v 0.01 c 0,0 15.0768,-1.68557 27.2773,9.21875 9.6217,8.59938 11.2326,18.77276 11.4863,22.70117 2e-4,0.002 -10e-5,0.004 0,0.006 a 6.6773448,6.6773448 0 0 0 -0.068,0.94531 6.6773448,6.6773448 0 0 0 6.6777,6.67578 6.6773448,6.6773448 0 0 0 6.6777,-6.67578 6.6773448,6.6773448 0 0 0 -0.164,-1.46289 l 0.2012,-0.0332 c 0,0 -0.971,-18.71016 -16.4473,-31.72461 -11.9941,-10.0862 -27.7241,-12.34681 -34.2149,-12.85742 a 6.6773448,6.6773448 0 0 0 -1.4277,-0.15625 6.6773448,6.6773448 0 0 0 -0.4726,0.0332 c -0.7138,-0.0313 -1.1289,-0.0332 -1.1289,-0.0332 z" />
      </g>
    </g>
  </g>
</svg>
